<svg xmlns="http://www.w3.org/2000/svg" width="32.44" height="33" viewBox="0 0 32.44 33">
  <metadata><?xpacket begin="﻿" id="W5M0MpCehiHzreSzNTczkc9d"?>
<x:xmpmeta xmlns:x="adobe:ns:meta/" x:xmptk="Adobe XMP Core 5.6-c142 79.160924, 2017/07/13-01:06:39        ">
   <rdf:RDF xmlns:rdf="http://www.w3.org/1999/02/22-rdf-syntax-ns#">
      <rdf:Description rdf:about=""/>
   </rdf:RDF>
</x:xmpmeta>
                                                                                                    
                                                                                                    
                                                                                                    
                                                                                                    
                                                                                                    
                                                                                                    
                                                                                                    
                                                                                                    
                                                                                                    
                                                                                                    
                                                                                                    
                                                                                                    
                                                                                                    
                                                                                                    
                                                                                                    
                                                                                                    
                                                                                                    
                                                                                                    
                                                                                                    
                                                                                                    
                           
<?xpacket end="w"?></metadata>
<defs>
    <style>
      .cls-1 {
        fill: #5597ee;
        fill-rule: evenodd;
      }
    </style>
  </defs>
  <path class="cls-1" d="M1155.84,894.688h15.86v1.434h-15.86v-1.434Zm14.42,2.151h1.44v1.434h-1.44v-1.434Zm-14.42,0h1.44v1.434h-1.44v-1.434Zm7.21-6.812h1.44v1.434h-1.44v-1.434Zm2.16,0h1.44v1.434h-1.44v-1.434Zm-4.32,0h1.44v1.434h-1.44v-1.434Zm-2.17,0h1.45v1.434h-1.45v-1.434Zm8.66,0h1.44v1.434h-1.44v-1.434Zm9.57,25.9a4.308,4.308,0,0,1-2.33.632l4.25-12.68a0.716,0.716,0,0,0-.38-0.881l-3.9-1.746v-6.922a2.167,2.167,0,0,0-2.17-2.151h-1.08v-3.585a0.717,0.717,0,0,0-.72-0.717h-6.13v-2.869h-1.44v2.869h-6.13a0.717,0.717,0,0,0-.72.717v3.585h-1.08a2.159,2.159,0,0,0-2.16,2.151v6.922L1149.05,903a0.716,0.716,0,0,0-.38.881l4.25,12.68a4.308,4.308,0,0,1-2.33-.632,5.707,5.707,0,0,0-3.04-.8v1.434a4.291,4.291,0,0,1,2.36.633,5.72,5.72,0,0,0,3.05.8,5.872,5.872,0,0,0,3.04-.8,4.722,4.722,0,0,1,4.72,0,6.188,6.188,0,0,0,6.09,0,4.3,4.3,0,0,1,2.36-.633,4.347,4.347,0,0,1,2.37.631,5.781,5.781,0,0,0,1.99.722,5.938,5.938,0,0,0,1.06.081,5.708,5.708,0,0,0,3.04-.8,4.3,4.3,0,0,1,2.36-.633v-1.434A5.707,5.707,0,0,0,1176.95,915.926Zm0.35-11.887-0.52,1.543-12.29-5.617v-1.659Zm-19.66-14.729h12.26v2.868h-12.26V889.31Zm-3.24,5.019a0.718,0.718,0,0,1,.72-0.717h17.3a0.718,0.718,0,0,1,.72.717v6.277l-9.07-4.062a0.738,0.738,0,0,0-.6,0l-9.07,4.062v-6.277h0Zm-4.16,9.71,12.81-5.733v1.659l-12.29,5.617Zm22.93,12.318a5.934,5.934,0,0,1-.96-0.434,6.173,6.173,0,0,0-6.08,0,4.741,4.741,0,0,1-4.73,0,6.169,6.169,0,0,0-6.08,0,5.912,5.912,0,0,1-.95.433l-3.15-9.407,11.83-5.407v8.562h1.44v-8.562l11.83,5.407Z" transform="translate(-1147.56 -885)"/>
</svg>
