<svg xmlns="http://www.w3.org/2000/svg" width="33" height="40" viewBox="0 0 33 40">
  <metadata><?xpacket begin="﻿" id="W5M0MpCehiHzreSzNTczkc9d"?>
<x:xmpmeta xmlns:x="adobe:ns:meta/" x:xmptk="Adobe XMP Core 5.6-c142 79.160924, 2017/07/13-01:06:39        ">
   <rdf:RDF xmlns:rdf="http://www.w3.org/1999/02/22-rdf-syntax-ns#">
      <rdf:Description rdf:about=""/>
   </rdf:RDF>
</x:xmpmeta>
                                                                                                    
                                                                                                    
                                                                                                    
                                                                                                    
                                                                                                    
                                                                                                    
                                                                                                    
                                                                                                    
                                                                                                    
                                                                                                    
                                                                                                    
                                                                                                    
                                                                                                    
                                                                                                    
                                                                                                    
                                                                                                    
                                                                                                    
                                                                                                    
                                                                                                    
                                                                                                    
                           
<?xpacket end="w"?></metadata>
<defs>
    <style>
      .cls-1 {
        fill: #5597ee;
        fill-rule: evenodd;
      }
    </style>
  </defs>
  <path id="Forma_1" data-name="Forma 1" class="cls-1" d="M1640.32,884.62a0.784,0.784,0,0,0-1.07.286,0.775,0.775,0,0,0,.29,1.069,0.785,0.785,0,0,0,1.07-.286A0.776,0.776,0,0,0,1640.32,884.62ZM1630.5,882a0.783,0.783,0,1,0,.79.782A0.79,0.79,0,0,0,1630.5,882Zm0,20.81a0.783,0.783,0,1,0,.79.782A0.79,0.79,0,0,0,1630.5,902.81Zm-8.75-17.9a0.786,0.786,0,0,0-1.07-.286,0.776,0.776,0,0,0-.29,1.069,0.785,0.785,0,0,0,1.07.286A0.775,0.775,0,0,0,1621.75,884.906Zm8.75,0.223a0.791,0.791,0,0,0-.79.783v3.129a0.79,0.79,0,0,0,1.58,0v-3.129A0.791,0.791,0,0,0,1630.5,885.129Zm-5.61,5.2-1.57-2.711a0.785,0.785,0,0,0-1.36.783l1.57,2.71a0.8,0.8,0,0,0,.69.392,0.805,0.805,0,0,0,.39-0.105A0.781,0.781,0,0,0,1624.89,890.327Zm13.86-3a0.781,0.781,0,0,0-1.07.287l-1.57,2.71a0.781,0.781,0,0,0,.28,1.069,0.805,0.805,0,0,0,.39.105,0.8,0.8,0,0,0,.69-0.392l1.57-2.71A0.784,0.784,0,0,0,1638.75,887.33Zm8.25,16.257v-0.078a0.03,0.03,0,0,1-.01-0.026v-0.03c0-.007-0.01-0.014-0.01-0.022V903.41c0-.01-0.01-0.02-0.01-0.031a0.026,0.026,0,0,0-.01-0.024v-0.017a0.039,0.039,0,0,1-.01-0.031,0.028,0.028,0,0,1-.01-0.025,0.012,0.012,0,0,1-.01-0.013c-0.01-.011-0.01-0.022-0.02-0.033s-0.01-.016-0.01-0.024v0l-4.71-8.293s-0.01-.008-0.01-0.012a0.216,0.216,0,0,0-.04-0.065s-0.01-.011-0.01-0.016a0.4,0.4,0,0,0-.07-0.073h0a0.354,0.354,0,0,0-.07-0.06,0.17,0.17,0,0,0-.01-0.014c-0.02-.015-0.04-0.028-0.06-0.041l-0.03-.013a0.372,0.372,0,0,0-.08-0.041h0a0.791,0.791,0,0,0-.09-0.03,0.045,0.045,0,0,1-.02-0.006c-0.03-.006-0.05-0.011-0.07-0.014l-0.03,0a0.68,0.68,0,0,0-.09-0.006H1619.5a0.758,0.758,0,0,0-.1.006l-0.02,0c-0.02,0-.05.009-0.07,0.015l-0.03.006c-0.02.008-.05,0.017-0.07,0.027l-0.02,0h0c-0.03.012-.05,0.026-0.08,0.041-0.01,0-.01.008-0.02,0.012s-0.04.026-.06,0.041-0.01.01-.02,0.015l-0.06.054s-0.01,0-.01.008l-0.06.072a0.014,0.014,0,0,0-.01.014c-0.02.021-.03,0.043-0.05,0.066v0.011l-4.71,8.276h0l-0.01.016v0a0.031,0.031,0,0,0-.01.027,0.059,0.059,0,0,0-.02.033s0,0.007-.01.01a0.031,0.031,0,0,1-.01.027,0.043,0.043,0,0,1-.01.033v0.014a0.029,0.029,0,0,0-.01.026c0,0.01-.01.021-0.01,0.031v0.019c0,0.008-.01.016-0.01,0.024v0.031a0.025,0.025,0,0,1-.01.023v0.154c0,0.007.01,0.015,0.01,0.022v0.052a0.026,0.026,0,0,1,.01.024,0.033,0.033,0,0,0,.01.028v0.021c0,0.008.01,0.017,0.01,0.025s0.01,0.018.01,0.026a0.021,0.021,0,0,0,.01.021,0.026,0.026,0,0,0,.01.024,0.026,0.026,0,0,0,.01.024,0.024,0.024,0,0,0,.01.022c0,0.007.01,0.015,0.01,0.022s0.01,0.014.01,0.021,0.01,0.016.02,0.024,0.01,0.014.01,0.021a0.017,0.017,0,0,1,.01.018,0.041,0.041,0,0,1,.02.023c0.01,0.007.01,0.014,0.02,0.02s0.01,0.008.01,0.012l15.81,17.626c0.02,0.021.04,0.042,0.06,0.061,0.01,0,.01,0,0.01.008a0.694,0.694,0,0,1,.07.054l0.03,0.016c0.02,0.014.05,0.028,0.07,0.04s0.01,0.007.02,0.01a0.844,0.844,0,0,0,.09.036l0.03,0.006c0.02,0.007.05,0.013,0.07,0.018l0.03,0a0.814,0.814,0,0,0,.11.008h0a0.578,0.578,0,0,0,.1-0.008l0.03,0a0.537,0.537,0,0,0,.08-0.018l0.03-.006a0.854,0.854,0,0,0,.09-0.037c0.01,0,.01-0.007.02-0.01s0.05-.025.07-0.04a0.031,0.031,0,0,0,.02-0.016,0.339,0.339,0,0,0,.07-0.054c0.01,0,.01-0.006.02-0.009,0.02-.019.04-0.04,0.06-0.062l15.61-17.625c0.01,0,.01-0.007.01-0.01s0.01-.012.02-0.018a0.044,0.044,0,0,1,.02-0.025,0.017,0.017,0,0,1,.01-0.018c0-.007.01-0.013,0.01-0.019s0.01-.017.02-0.026,0.01-.014.01-0.021,0.01-.013.01-0.02a0.026,0.026,0,0,0,.01-0.024,0.026,0.026,0,0,0,.01-0.024,0.024,0.024,0,0,0,.01-0.022,0.024,0.024,0,0,0,.01-0.023c0-.008.01-0.017,0.01-0.027s0.01-.015.01-0.022v-0.023a0.034,0.034,0,0,0,.01-0.029,0.021,0.021,0,0,1,.01-0.021v-0.055c0-.006.01-0.013,0.01-0.019v-0.077Zm-6.67-7.5-2.55,6.053-5.51-6.053h8.06Zm-11.59,0-5.46,6.061-2.59-6.061h8.05Zm-9.34.98,2.46,5.748h-5.73Zm-2.86,7.313h5.99l5.47,12.774Zm14.05,14.833-6.35-14.833h3.12a0.783,0.783,0,0,0,0-1.565h-2.57l5.71-6.342,5.77,6.342h-2.63a0.783,0.783,0,0,0,0,1.565h3.19Zm2.58-2.075,5.37-12.758h5.93Zm6.03-14.323,2.41-5.736,3.26,5.736h-5.67Z" transform="translate(-1614 -882)"/>
</svg>
