<svg 
 xmlns="http://www.w3.org/2000/svg"
 xmlns:xlink="http://www.w3.org/1999/xlink"
 viewBox="0 0 21 15">
<path fill-rule="evenodd" 
 d="M20.714,6.783 L14.464,0.296 C14.083,-0.099 13.465,-0.099 13.084,0.296 C12.702,0.692 12.702,1.334 13.084,1.730 L17.666,6.486 L0.976,6.486 C0.437,6.486 -0.000,6.940 -0.000,7.499 C-0.000,8.059 0.437,8.513 0.976,8.513 L17.666,8.513 L13.084,13.269 C12.702,13.665 12.702,14.307 13.084,14.703 C13.274,14.900 13.524,15.000 13.774,15.000 C14.024,15.000 14.274,14.900 14.465,14.703 L20.714,8.216 C21.095,7.821 21.095,7.179 20.714,6.783 Z"/>
</svg>