<svg 
 xmlns="http://www.w3.org/2000/svg"
 xmlns:xlink="http://www.w3.org/1999/xlink"
 viewBox="0 0 63 63">
<path fill-rule="evenodd"  
 d="M61.950,63.000 L45.150,63.000 C44.570,63.000 44.100,62.529 44.100,61.949 C44.100,61.370 44.570,60.900 45.150,60.900 L61.950,60.900 C62.530,60.900 63.000,61.370 63.000,61.949 C63.000,62.529 62.530,63.000 61.950,63.000 ZM53.550,16.799 C52.971,16.799 52.500,16.329 52.500,15.749 C52.500,15.170 52.971,14.700 53.550,14.700 C55.287,14.700 56.700,13.286 56.700,11.549 C56.700,9.812 55.287,8.399 53.550,8.399 C52.998,8.399 52.461,8.552 51.955,8.852 C51.616,9.053 51.191,9.047 50.858,8.835 C50.525,8.623 50.337,8.244 50.375,7.850 C50.390,7.686 50.400,7.518 50.400,7.349 C50.400,4.454 48.045,2.099 45.150,2.099 C43.124,2.099 41.257,3.291 40.397,5.135 C40.232,5.487 39.887,5.720 39.499,5.739 C39.111,5.751 38.743,5.562 38.544,5.229 C38.158,4.584 37.487,4.199 36.750,4.199 C35.592,4.199 34.650,5.141 34.650,6.299 C34.650,6.547 34.700,6.801 34.798,7.053 C34.911,7.343 34.890,7.666 34.739,7.938 C34.591,8.209 34.330,8.402 34.025,8.463 C32.563,8.756 31.500,10.055 31.500,11.549 C31.500,13.286 32.913,14.700 34.650,14.700 C36.387,14.700 37.800,13.286 37.800,11.549 C37.800,10.970 38.271,10.499 38.850,10.499 C39.430,10.499 39.900,10.970 39.900,11.549 C39.900,14.444 37.545,16.799 34.650,16.799 C31.755,16.799 29.400,14.444 29.400,11.549 C29.400,9.427 30.684,7.543 32.573,6.729 C32.557,6.585 32.550,6.442 32.550,6.299 C32.550,3.983 34.434,2.099 36.750,2.099 C37.682,2.099 38.559,2.403 39.273,2.947 C40.645,1.121 42.822,-0.001 45.150,-0.001 C48.889,-0.001 51.986,2.806 52.442,6.423 C52.808,6.341 53.178,6.299 53.550,6.299 C56.445,6.299 58.800,8.654 58.800,11.549 C58.800,14.444 56.445,16.799 53.550,16.799 ZM55.682,2.099 C55.102,2.099 54.626,1.628 54.626,1.050 C54.626,0.470 55.092,-0.001 55.671,-0.001 L55.682,-0.001 C56.262,-0.001 56.732,0.470 56.732,1.050 C56.732,1.628 56.262,2.099 55.682,2.099 ZM27.300,5.249 C26.721,5.249 26.250,4.779 26.250,4.199 C26.250,3.041 25.308,2.099 24.150,2.099 C23.049,2.099 22.134,2.967 22.067,4.074 C22.045,4.438 21.836,4.765 21.515,4.936 C21.193,5.110 20.806,5.102 20.490,4.917 C19.685,4.447 18.772,4.199 17.850,4.199 C14.955,4.199 12.600,6.554 12.600,9.449 C12.600,10.048 12.707,10.649 12.918,11.230 C13.040,11.568 12.981,11.946 12.761,12.229 C12.541,12.515 12.194,12.668 11.833,12.633 L11.653,12.612 C11.618,12.607 11.585,12.600 11.548,12.600 C9.813,12.600 8.400,14.013 8.400,15.750 C8.400,17.486 9.813,18.899 11.550,18.899 C12.130,18.899 12.600,19.370 12.600,19.949 C12.600,20.529 12.130,20.999 11.550,20.999 C8.655,20.999 6.300,18.644 6.300,15.750 C6.300,13.182 8.152,11.039 10.590,10.586 C10.530,10.211 10.500,9.831 10.500,9.449 C10.500,5.396 13.797,2.099 17.850,2.099 C18.689,2.099 19.522,2.246 20.310,2.527 C20.958,1.034 22.443,-0.001 24.150,-0.001 C26.466,-0.001 28.350,1.883 28.350,4.199 C28.350,4.779 27.880,5.249 27.300,5.249 ZM7.381,8.400 C6.802,8.400 6.326,7.929 6.326,7.349 C6.326,6.770 6.791,6.299 7.371,6.299 L7.381,6.299 C7.962,6.299 8.431,6.770 8.431,7.349 C8.431,7.929 7.962,8.400 7.381,8.400 ZM11.550,33.599 C12.130,33.599 12.600,34.070 12.600,34.649 C12.600,47.440 7.457,57.789 7.238,58.222 C7.053,58.588 6.683,58.799 6.300,58.799 C6.140,58.799 5.980,58.764 5.827,58.687 C5.310,58.426 5.102,57.795 5.362,57.277 C5.414,57.175 10.500,46.923 10.500,34.649 C10.500,34.070 10.970,33.599 11.550,33.599 ZM16.800,61.949 C16.800,62.529 16.329,63.000 15.750,63.000 L1.050,63.000 C0.470,63.000 -0.000,62.529 -0.000,61.949 C-0.000,61.370 0.470,60.900 1.050,60.900 L15.750,60.900 C16.329,60.900 16.800,61.370 16.800,61.949 ZM19.950,60.900 L34.650,60.900 C35.230,60.900 35.700,61.370 35.700,61.949 C35.700,62.529 35.230,63.000 34.650,63.000 L19.950,63.000 C19.370,63.000 18.900,62.529 18.900,61.949 C18.900,61.370 19.370,60.900 19.950,60.900 ZM30.450,29.399 C31.030,29.399 31.500,29.870 31.500,30.449 C31.500,47.211 28.436,57.616 28.306,58.051 C28.169,58.507 27.753,58.799 27.300,58.799 C27.200,58.799 27.100,58.785 26.999,58.755 C26.443,58.588 26.128,58.003 26.294,57.448 C26.325,57.346 29.269,47.321 29.396,31.500 L11.550,31.500 C10.970,31.500 10.500,31.029 10.500,30.449 L10.500,24.150 C10.500,23.570 10.970,23.099 11.550,23.099 L26.250,23.099 C26.829,23.099 27.300,23.570 27.300,24.150 C27.300,24.728 26.829,25.199 26.250,25.199 L12.600,25.199 L12.600,29.399 L30.450,29.399 ZM26.271,8.400 L26.282,8.400 C26.862,8.400 27.331,8.870 27.331,9.449 C27.331,10.029 26.862,10.499 26.282,10.499 C25.702,10.499 25.226,10.029 25.226,9.449 C25.226,8.870 25.692,8.400 26.271,8.400 ZM23.100,14.700 C22.520,14.700 22.050,14.229 22.050,13.649 C22.050,13.070 22.520,12.599 23.100,12.599 C25.416,12.599 27.300,14.483 27.300,16.799 C27.300,19.116 25.416,20.999 23.100,20.999 C22.520,20.999 22.050,20.529 22.050,19.949 C22.050,19.370 22.520,18.899 23.100,18.899 C24.258,18.899 25.200,17.957 25.200,16.799 C25.200,15.641 24.258,14.700 23.100,14.700 ZM44.100,13.649 C44.100,13.070 44.570,12.599 45.150,12.599 C46.467,12.599 47.726,12.110 48.696,11.220 C49.124,10.829 49.788,10.858 50.180,11.287 C50.571,11.714 50.542,12.377 50.114,12.769 C48.756,14.013 46.993,14.700 45.150,14.700 C44.570,14.700 44.100,14.229 44.100,13.649 ZM49.350,25.199 C49.930,25.199 50.400,25.669 50.400,26.249 C50.400,26.829 49.930,27.299 49.350,27.299 L30.450,27.299 C29.870,27.299 29.400,26.829 29.400,26.250 L29.400,19.950 C29.400,19.370 29.870,18.899 30.450,18.899 L53.550,18.899 C54.130,18.899 54.600,19.370 54.600,19.950 L54.600,30.449 C54.600,46.876 57.674,57.344 57.706,57.448 C57.872,58.003 57.557,58.588 57.001,58.756 C56.901,58.785 56.800,58.799 56.700,58.799 C56.248,58.799 55.831,58.507 55.694,58.051 C55.564,57.616 52.500,47.211 52.500,30.449 L52.500,20.999 L31.500,20.999 L31.500,25.199 L49.350,25.199 ZM38.850,60.900 L40.950,60.900 C41.530,60.900 42.000,61.370 42.000,61.949 C42.000,62.529 41.530,63.000 40.950,63.000 L38.850,63.000 C38.270,63.000 37.800,62.529 37.800,61.949 C37.800,61.370 38.270,60.900 38.850,60.900 Z"/>
</svg>