<svg xmlns="http://www.w3.org/2000/svg" width="11" height="19" viewBox="0 0 11 19">
  <metadata><?xpacket begin="﻿" id="W5M0MpCehiHzreSzNTczkc9d"?>
<x:xmpmeta xmlns:x="adobe:ns:meta/" x:xmptk="Adobe XMP Core 5.6-c142 79.160924, 2017/07/13-01:06:39        ">
   <rdf:RDF xmlns:rdf="http://www.w3.org/1999/02/22-rdf-syntax-ns#">
      <rdf:Description rdf:about=""/>
   </rdf:RDF>
</x:xmpmeta>
<?xpacket end="w"?></metadata>
<defs>
    <style>
    </style>
  </defs>
  <path class="cls-1" d="M468.3,1226.76l8.332-8.46a1.025,1.025,0,0,1,1.449,0l0.614,0.63a1.052,1.052,0,0,1,0,1.47l-7,7.1,7,7.1a1.056,1.056,0,0,1,.3.74,1.015,1.015,0,0,1-.3.73l-0.613.63a1.025,1.025,0,0,1-1.449,0l-8.34-8.47a1.015,1.015,0,0,1-.3-0.73A1.038,1.038,0,0,1,468.3,1226.76Z" transform="translate(-468 -1218)"/>
</svg>
